# xmcd CD database file
#
# Track frame offsets:
#	183
#	16095
#	28223
#	40588
#	57613
#	80385
#	93260
#	108145
#	122863
#	135463
#	153838
#	172270
#	192820
#	206933
#	223325
#
# Disc length: 3130 seconds
#
# Revision: 0
# Processed by: cddbd v1.4PL0 Copyright (c) Steve Scherf et al.
# Submitted via: Feurio! 1.65 - http://www.feurio.com
#
DISCID=cf0c380f
DTITLE=Ike and Tina Turner - Come Together
DYEAR=1900
DGENRE=Rhythm and Blues
TTITLE0=Come Together
TTITLE1=I Need A Man
TTITLE2=Gimme Some Lovin'
TTITLE3=Give It To Me
TTITLE4=I Gotta Man
TTITLE5=Put On Your Tight Pants
TTITLE6=If You Can Hully Gully (I Can Hully Gully Too)
TTITLE7=Keep You Guessing
TTITLE8=I'm Movin' On
TTITLE9=She Belongs To Me
TTITLE10=I Idolise You
TTITLE11=Give Me A Chance
TTITLE12=Sweet Rhode Island Red
TTITLE13=Golden Empire
TTITLE14=Keep On Using Me
EXTD=
EXTT0=
EXTT1=
EXTT2=
EXTT3=
EXTT4=
EXTT5=
EXTT6=
EXTT7=
EXTT8=
EXTT9=
EXTT10=
EXTT11=
EXTT12=
EXTT13=
EXTT14=
PLAYORDER=
